<mxfile host="app.diagrams.net" agent="Mozilla/5.0 (X11; Linux x86_64) AppleWebKit/537.36 (KHTML, like Gecko) Chrome/128.0.0.0 Safari/537.36" version="24.7.10">
  <diagram name="Page-1" id="A3ynmZSJMIhbjN7IM4xh">
    <mxGraphModel dx="717" dy="410" grid="1" gridSize="10" guides="1" tooltips="1" connect="1" arrows="1" fold="1" page="1" pageScale="1" pageWidth="850" pageHeight="1100" math="0" shadow="0">
      <root>
        <mxCell id="0" />
        <mxCell id="1" parent="0" />
        <mxCell id="2dlIjOko7ElrHaeRxo3V-12" style="edgeStyle=orthogonalEdgeStyle;rounded=0;orthogonalLoop=1;jettySize=auto;html=1;" edge="1" parent="1" source="II6Lf9muArxHyPECMsTV-1">
          <mxGeometry relative="1" as="geometry">
            <mxPoint x="1000" y="340" as="targetPoint" />
          </mxGeometry>
        </mxCell>
        <mxCell id="II6Lf9muArxHyPECMsTV-1" value="&lt;div&gt;tunnels-training-atropia-pivot&lt;br&gt;&lt;/div&gt;(Atropia)&lt;div&gt;T3 Float IP&lt;/div&gt;&lt;div&gt;:22&lt;/div&gt;" style="whiteSpace=wrap;html=1;aspect=fixed;" parent="1" vertex="1">
          <mxGeometry x="630" y="240" width="200" height="200" as="geometry" />
        </mxCell>
        <mxCell id="2dlIjOko7ElrHaeRxo3V-5" value="" style="fontColor=#0066CC;verticalAlign=top;verticalLabelPosition=bottom;labelPosition=center;align=center;html=1;outlineConnect=0;fillColor=#CCCCCC;strokeColor=#6881B3;gradientColor=none;gradientDirection=north;strokeWidth=2;shape=mxgraph.networks.firewall;" vertex="1" parent="1">
          <mxGeometry x="320" y="160" width="160" height="320" as="geometry" />
        </mxCell>
        <mxCell id="2dlIjOko7ElrHaeRxo3V-6" value="&lt;div&gt;BLUE-INTERNET_HOST.&lt;/div&gt;10.10.0.40&lt;div&gt;(AP?)&lt;div&gt;&lt;br&gt;&lt;/div&gt;&lt;/div&gt;" style="whiteSpace=wrap;html=1;aspect=fixed;" vertex="1" parent="1">
          <mxGeometry y="240" width="200" height="200" as="geometry" />
        </mxCell>
        <mxCell id="2dlIjOko7ElrHaeRxo3V-8" value="" style="endArrow=none;dashed=1;html=1;dashPattern=1 3;strokeWidth=2;rounded=0;exitX=1;exitY=0.5;exitDx=0;exitDy=0;entryX=0;entryY=0.5;entryDx=0;entryDy=0;" edge="1" parent="1" source="2dlIjOko7ElrHaeRxo3V-6" target="II6Lf9muArxHyPECMsTV-1">
          <mxGeometry width="50" height="50" relative="1" as="geometry">
            <mxPoint x="420" y="390" as="sourcePoint" />
            <mxPoint x="470" y="340" as="targetPoint" />
          </mxGeometry>
        </mxCell>
        <mxCell id="2dlIjOko7ElrHaeRxo3V-9" value="ssh -&amp;gt;&lt;div&gt;Atropia&lt;/div&gt;" style="text;html=1;align=center;verticalAlign=middle;resizable=0;points=[];autosize=1;strokeColor=none;fillColor=none;" vertex="1" parent="1">
          <mxGeometry x="200" y="320" width="60" height="40" as="geometry" />
        </mxCell>
        <mxCell id="2dlIjOko7ElrHaeRxo3V-10" value="&lt;span style=&quot;text-wrap: wrap;&quot;&gt;10.50.41.243&lt;/span&gt;" style="text;html=1;align=center;verticalAlign=middle;resizable=0;points=[];autosize=1;strokeColor=none;fillColor=none;" vertex="1" parent="1">
          <mxGeometry x="540" y="340" width="90" height="30" as="geometry" />
        </mxCell>
        <mxCell id="2dlIjOko7ElrHaeRxo3V-11" value="&lt;div&gt;tunnels-training-atropia-pivot&lt;br&gt;&lt;/div&gt;(Atropia)&lt;div&gt;T3 Float IP&lt;/div&gt;&lt;div&gt;:22&lt;/div&gt;" style="whiteSpace=wrap;html=1;aspect=fixed;" vertex="1" parent="1">
          <mxGeometry x="1175" y="240" width="200" height="200" as="geometry" />
        </mxCell>
        <mxCell id="2dlIjOko7ElrHaeRxo3V-13" value="&lt;span style=&quot;text-wrap: wrap;&quot;&gt;eth0&lt;/span&gt;&lt;div&gt;&lt;span style=&quot;text-wrap: wrap;&quot;&gt;10.3.0.10/24&lt;/span&gt;&lt;/div&gt;" style="text;html=1;align=center;verticalAlign=middle;resizable=0;points=[];autosize=1;strokeColor=none;fillColor=none;" vertex="1" parent="1">
          <mxGeometry x="830" y="300" width="90" height="40" as="geometry" />
        </mxCell>
      </root>
    </mxGraphModel>
  </diagram>
</mxfile>
